<svg width="800" height="800" viewBox="0 0 100 100" xmlns="http://www.w3.org/2000/svg">
  <path d="M28 18h44v12c0 14-8 26-22 32v16c0 4-4 8-8 8H36c-4 0-8-4-8-8V62C14 56 6 44 6 30V18h22z" fill="#f5c060" opacity=".85"/>
  <path d="M28 18h44v12c0 14-8 26-22 32v16c0 4-4 8-8 8H36c-4 0-8-4-8-8V62C14 56 6 44 6 30V18h22z" fill="none" stroke="#9a5500" stroke-width="3"/>
  <rect x="72" y="22" width="12" height="28" rx="3" fill="#f5c060" stroke="#9a5500" stroke-width="2.5" opacity=".8"/>
  <rect x="72" y="22" width="12" height="10" rx="2" fill="#fdeed5" stroke="#9a5500" stroke-width="2"/>
  <rect x="18" y="14" width="56" height="6" rx="3" fill="#fdeed5" stroke="#9a5500" stroke-width="2"/>
  <circle cx="38" cy="70" r="3" fill="#fff" opacity=".6"/>
  <circle cx="48" cy="72" r="2.5" fill="#fff" opacity=".5"/>
  <circle cx="42" cy="76" r="2" fill="#fff" opacity=".4"/>
</svg>
